<svg width="32" height="32" viewBox="0 0 32 32" fill="none" xmlns="http://www.w3.org/2000/svg">
<path d="M16 0C2.824 0 0 2.824 0 16C0 29.176 2.824 32 16 32C29.176 32 32 29.176 32 16C32 2.824 29.176 0 16 0Z" fill="black"/>
<path d="M16 7C16.5851 7 17.1171 7.33994 17.3624 7.87109L23.3624 20.8711C23.5767 21.3355 23.5394 21.8777 23.2637 22.3086C22.988 22.7395 22.5116 23 22 23H10C9.48853 23 9.01207 22.7395 8.73637 22.3086C8.46068 21.8777 8.42338 21.3355 8.63774 20.8711L14.6377 7.87109L14.6875 7.77441C14.9501 7.29922 15.4515 7 16 7ZM12.3448 20H19.6553L16 12.0801L12.3448 20Z" fill="white"/>
</svg>
