<svg fill="none" height="32" viewBox="0 0 32 32" width="32" xmlns="http://www.w3.org/2000/svg"><path d="m16 0c-13.176 0-16 2.824-16 16s2.824 16 16 16 16-2.824 16-16-2.824-16-16-16z" fill="#000"/><g fill="#fff"><path d="m17.5001 8.59222c0-.82842-.6716-1.5-1.5-1.5-.8285 0-1.5.67158-1.5 1.5v3.90778h-4.0001c-.82843 0-1.5.6716-1.5 1.5s.67157 1.5 1.5 1.5h4.0001v3h3v-3h3.9999c.8284 0 1.5-.6716 1.5-1.5s-.6716-1.5-1.5-1.5h-3.9999z"/><path d="m10.5 20c-.82843 0-1.5.6716-1.5 1.5s.67157 1.5 1.5 1.5h11c.8284 0 1.5-.6716 1.5-1.5s-.6716-1.5-1.5-1.5z"/></g></svg>