<svg width="32" height="32" viewBox="0 0 32 32" fill="none" xmlns="http://www.w3.org/2000/svg">
<path d="M16 0C2.824 0 0 2.824 0 16C0 29.176 2.824 32 16 32C29.176 32 32 29.176 32 16C32 2.824 29.176 0 16 0Z" fill="black"/>
<path d="M19.5 11.1875C19.5 10.7382 19.171 10.5002 18.917 10.5H13.083C12.829 10.5002 12.5 10.7382 12.5 11.1875V20.8125C12.5 21.2618 12.829 21.4998 13.083 21.5H18.917C19.171 21.4998 19.5 21.2618 19.5 20.8125V11.1875ZM22.5 20.8125C22.5 22.7791 20.964 24.4998 18.917 24.5H13.083C11.036 24.4998 9.5 22.7791 9.5 20.8125V11.1875C9.5 9.22086 11.036 7.50018 13.083 7.5H18.917C20.964 7.50018 22.5 9.22086 22.5 11.1875V20.8125Z" fill="white"/>
</svg>
