<svg width="32" height="32" viewBox="0 0 32 32" fill="none" xmlns="http://www.w3.org/2000/svg">
<style>.bg{fill:#000}.fg{fill:#fff}@media(prefers-color-scheme:dark){.bg{fill:#fff}.fg{fill:#000}}</style>
<path class="bg" d="M16 0C2.824 0 0 2.824 0 16C0 29.176 2.824 32 16 32C29.176 32 32 29.176 32 16C32 2.824 29.176 0 16 0Z"/>
<path class="fg" d="M21 16.625C21.6213 16.625 22.125 17.1287 22.125 17.75V19.875H24.25C24.8713 19.875 25.375 20.3787 25.375 21C25.375 21.6213 24.8713 22.125 24.25 22.125H22.125V24.25C22.125 24.8713 21.6213 25.375 21 25.375C20.3787 25.375 19.875 24.8713 19.875 24.25V22.125H17.75C17.1287 22.125 16.625 21.6213 16.625 21C16.625 20.3787 17.1287 19.875 17.75 19.875H19.875V17.75C19.875 17.1287 20.3787 16.625 21 16.625Z"/>
<path class="fg" d="M13.25 19.875C13.8713 19.875 14.375 20.3787 14.375 21C14.375 21.6213 13.8713 22.125 13.25 22.125H8.75C8.12868 22.125 7.625 21.6213 7.625 21C7.625 20.3787 8.12868 19.875 8.75 19.875H13.25Z"/>
<path class="fg" d="M11 6.625C11.6213 6.625 12.125 7.12868 12.125 7.75V9.875H14.25C14.8713 9.875 15.375 10.3787 15.375 11C15.375 11.6213 14.8713 12.125 14.25 12.125H12.125V14.25C12.125 14.8713 11.6213 15.375 11 15.375C10.3787 15.375 9.875 14.8713 9.875 14.25V12.125H7.75C7.12868 12.125 6.625 11.6213 6.625 11C6.625 10.3787 7.12868 9.875 7.75 9.875H9.875V7.75C9.875 7.12868 10.3787 6.625 11 6.625Z"/>
<path class="fg" d="M23.25 9.875C23.8713 9.875 24.375 10.3787 24.375 11C24.375 11.6213 23.8713 12.125 23.25 12.125H18.75C18.1287 12.125 17.625 11.6213 17.625 11C17.625 10.3787 18.1287 9.875 18.75 9.875H23.25Z"/>
</svg>
